HIERARCHY
ROOT Hips
{
  OFFSET -4.35178 90.3298 111.633
  CHANNELS 6 Xposition Yposition Zposition Zrotation Xrotation Yrotation
  JOINT LeftUpLeg
  {
    OFFSET 0.103456 1.85784 10.5485
    CHANNELS 6 Xposition Yposition Zposition Zrotation Xrotation Yrotation
    JOINT LeftLeg
    {
      OFFSET 43.5 -4.2e-05 0
      CHANNELS 6 Xposition Yposition Zposition Zrotation Xrotation Yrotation
      JOINT LeftFoot
      {
        OFFSET 42.3722 1.9e-05 0
        CHANNELS 6 Xposition Yposition Zposition Zrotation Xrotation Yrotation
        JOINT LeftToe
        {
          OFFSET 17.3 0 0
          CHANNELS 6 Xposition Yposition Zposition Zrotation Xrotation Yrotation
          End Site
          {
            OFFSET 0 0 0
          }
        }
      }
    }
  }
  JOINT RightUpLeg
  {
    OFFSET 0.103456 1.85782 -10.5485
    CHANNELS 6 Xposition Yposition Zposition Zrotation Xrotation Yrotation
    JOINT RightLeg
    {
      OFFSET 43.5 -2.7e-05 0
      CHANNELS 6 Xposition Yposition Zposition Zrotation Xrotation Yrotation
      JOINT RightFoot
      {
        OFFSET 42.3723 0 0
        CHANNELS 6 Xposition Yposition Zposition Zrotation Xrotation Yrotation
        JOINT RightToe
        {
          OFFSET 17.3 0 1.7e-05
          CHANNELS 6 Xposition Yposition Zposition Zrotation Xrotation Yrotation
          End Site
          {
            OFFSET 0 0 0
          }
        }
      }
    }
  }
  JOINT Spine
  {
    OFFSET 6.90197 -2.60373 0
    CHANNELS 6 Xposition Yposition Zposition Zrotation Xrotation Yrotation
    JOINT Spine1
    {
      OFFSET 12.5881 0 0
      CHANNELS 6 Xposition Yposition Zposition Zrotation Xrotation Yrotation
      JOINT Spine2
      {
        OFFSET 12.3432 -1.8e-05 0
        CHANNELS 6 Xposition Yposition Zposition Zrotation Xrotation Yrotation
        JOINT Neck
        {
          OFFSET 25.8329 2.3e-05 0
          CHANNELS 6 Xposition Yposition Zposition Zrotation Xrotation Yrotation
          JOINT Head
          {
            OFFSET 11.7666 0 0
            CHANNELS 6 Xposition Yposition Zposition Zrotation Xrotation Yrotation
            End Site
            {
              OFFSET 0 0 0
            }
          }
        }
        JOINT LeftShoulder
        {
          OFFSET 19.7459 -1.48035 6.0001
          CHANNELS 6 Xposition Yposition Zposition Zrotation Xrotation Yrotation
          JOINT LeftArm
          {
            OFFSET 11.2841 1.8e-05 -2e-05
            CHANNELS 6 Xposition Yposition Zposition Zrotation Xrotation Yrotation
            JOINT LeftForeArm
            {
              OFFSET 33 -1.3e-05 1.9e-05
              CHANNELS 6 Xposition Yposition Zposition Zrotation Xrotation Yrotation
              JOINT LeftHand
              {
                OFFSET 25.2 3.2e-05 1.1e-05
                CHANNELS 6 Xposition Yposition Zposition Zrotation Xrotation Yrotation
                End Site
                {
                  OFFSET 0 0 0
                }
              }
            }
          }
        }
        JOINT RightShoulder
        {
          OFFSET 19.7461 -1.48036 -6.00008
          CHANNELS 6 Xposition Yposition Zposition Zrotation Xrotation Yrotation
          JOINT RightArm
          {
            OFFSET 11.2841 0 0
            CHANNELS 6 Xposition Yposition Zposition Zrotation Xrotation Yrotation
            JOINT RightForeArm
            {
              OFFSET 33.0001 1.6e-05 0
              CHANNELS 6 Xposition Yposition Zposition Zrotation Xrotation Yrotation
              JOINT RightHand
              {
                OFFSET 25.1998 0.000123 0.000432
                CHANNELS 6 Xposition Yposition Zposition Zrotation Xrotation Yrotation
                End Site
                {
                  OFFSET 0 0 0
                }
              }
            }
          }
        }
      }
    }
  }
}
MOTION
Frames:	5
Frame Time:	0.0333333
3.62633 90.0783 101.243 7.95812 -84.7733 -80.0138 0.103456 1.85784 10.5485 3.63198 5.46011 -178.445 43.5 -4.2e-05 1e-05 -18.0269 -6.65543 -2.85786 42.3722 1.9e-05 0 77.3564 -0.156193 -1.77072 17.3 7.10543e-15 3e-06 21.4546 -1e-06 0.003093 0.103456 1.85782 -10.5485 11.5796 -4.64605 176.387 43.5 -2.7e-05 4e-06 -5.32602 11.7978 3.72009 42.3723 0 1e-05 82.362 12.2674 -9.7513 17.3 -6e-06 1.7e-05 21.4546 -1.9e-05 -0.003116 6.90197 -2.60373 -3e-06 7.577 0.810547 0.660302 12.5881 1e-05 8e-06 5.10833 1.77863 1.22374 12.3432 -1.8e-05 -5e-06 4.75951 1.92526 1.12342 25.8329 2.3e-05 7e-06 3.33924 -1.29309 -1.73084 11.7666 -8e-06 -6e-06 -32.3206 -9.82581 10.1261 19.7459 -1.48035 6.0001 172.85 -10.0763 -104.007 11.2841 1.8e-05 -2e-05 -2.04796 -32.2338 32.9125 33 -1.3e-05 1.9e-05 -11.3175 10.1046 -17.7901 25.2 3.2e-05 1.1e-05 0.393988 30.2073 2.99167 19.7461 -1.48036 -6.00008 -170.772 -4.08134 78.107 11.2841 0 -1e-06 28.8583 3.23534 -1.59482 33.0001 1.6e-05 -1e-06 -40.3134 8.20815 23.4112 25.1998 0.000123 0.000432 20.9031 -11.2701 7.07263 
3.63248 90.0785 101.214 7.64295 -84.8366 -80.3734 0.103456 1.85784 10.5485 3.54621 5.4323 -178.389 43.5 -4.2e-05 1e-05 -18.1695 -6.67207 -2.8816 42.3722 1.9e-05 7.10543e-15 77.4255 -0.17431 -1.75502 17.3 7.10543e-15 3e-06 21.4546 -1e-06 0.003093 0.103456 1.85782 -10.5485 11.6013 -4.72137 176.424 43.5 -2.7e-05 4e-06 -5.22705 11.794 3.72038 42.3723 0 1e-05 82.3399 12.2175 -9.68464 17.3 -6e-06 1.7e-05 21.4546 -1.9e-05 -0.003116 6.90197 -2.60373 -3e-06 7.57666 0.815361 0.654801 12.5881 1e-05 8e-06 5.10763 1.7874 1.21208 12.3432 -1.8e-05 -5e-06 4.75875 1.93329 1.11124 25.8329 2.3e-05 7e-06 3.33791 -1.35126 -1.71239 11.7666 -8e-06 -6e-06 -32.3784 -9.89691 10.0962 19.7459 -1.48035 6.0001 172.842 -10.0637 -104.046 11.2841 1.8e-05 -2e-05 -2.00171 -32.296 32.9987 33 -1.3e-05 1.9e-05 -11.3307 10.0636 -17.784 25.2 3.2e-05 1.1e-05 0.501399 30.1842 2.99631 19.7461 -1.48036 -6.00008 -170.725 -4.11266 78.1344 11.2841 0 -1e-06 28.8174 3.22128 -1.6209 33.0001 1.6e-05 -1e-06 -40.4307 8.11966 23.4604 25.1998 0.000123 0.000432 20.8599 -11.2931 7.12283 
3.62386 90.0808 101.151 7.03553 -84.8812 -81.0202 0.103456 1.85784 10.5485 3.60012 5.35184 -178.362 43.5 -4.2e-05 1e-05 -18.0974 -6.7036 -2.90249 42.3722 1.9e-05 0 77.4427 -0.287583 -1.76842 17.3 0 3e-06 21.4546 -1e-06 0.003093 0.103456 1.85782 -10.5485 11.5849 -4.74845 176.462 43.5 -2.7e-05 4e-06 -5.24695 11.7822 3.7072 42.3723 0 1e-05 82.3365 12.1299 -9.68115 17.3 -6e-06 1.7e-05 21.4546 -1.9e-05 -0.003116 6.90197 -2.60373 -3e-06 7.5874 0.834619 0.648352 12.5881 1e-05 8e-06 5.12871 1.82522 1.1963 12.3432 -1.8e-05 -5e-06 4.77941 1.97038 1.09319 25.8329 2.3e-05 7e-06 3.33778 -1.37971 -1.68263 11.7666 -8e-06 -6e-06 -32.294 -9.95481 10.0922 19.7459 -1.48035 6.0001 172.865 -10.0674 -104.031 11.2841 1.8e-05 -2e-05 -2.11992 -32.323 33.0457 33 -1.3e-05 1.9e-05 -11.4552 10.094 -17.7313 25.2 3.2e-05 1.1e-05 0.437542 30.1651 3.03492 19.7461 -1.48036 -6.00008 -170.66 -4.16784 78.1245 11.2841 0 -1e-06 28.8832 3.26283 -1.68035 33.0001 1.6e-05 -1e-06 -40.4767 8.04979 23.5242 25.1998 0.000123 0.000432 20.7922 -11.3125 7.15239 
3.59205 90.0814 101.086 6.61023 -84.9107 -81.4628 0.103456 1.85784 10.5485 3.71775 5.32887 -178.362 43.5 -4.2e-05 1e-05 -17.9245 -6.73475 -2.91049 42.3722 1.9e-05 0 77.4314 -0.339137 -1.79745 17.3 7.10543e-15 3e-06 21.4546 -1e-06 0.003093 0.103456 1.85782 -10.5485 11.5996 -4.73322 176.486 43.5 -2.7e-05 4e-06 -5.23345 11.7933 3.68626 42.3723 0 1e-05 82.3237 12.0795 -9.74087 17.3 -6e-06 1.7e-05 21.4546 -1.9e-05 -0.003116 6.90197 -2.60373 -3e-06 7.59514 0.848054 0.634538 12.5881 1e-05 8e-06 5.14432 1.85026 1.1667 12.3432 -1.8e-05 -5e-06 4.79484 1.99378 1.06214 25.8329 2.3e-05 7e-06 3.33865 -1.36588 -1.66335 11.7666 -8e-06 -6e-06 -32.1805 -9.95816 10.1009 19.7459 -1.48035 6.0001 172.885 -10.0601 -103.968 11.2841 1.8e-05 -2e-05 -2.23526 -32.3555 33.0673 33 -1.3e-05 1.9e-05 -11.6625 10.1868 -17.6781 25.2 3.2e-05 1.1e-05 0.332667 30.1973 3.04309 19.7461 -1.48036 -6.00008 -170.666 -4.19232 78.129 11.2841 0 -1e-06 28.9234 3.33851 -1.75084 33.0001 1.6e-05 -1e-06 -40.3983 8.11235 23.5363 25.1998 0.000123 0.000432 20.8372 -11.2843 7.1608 
3.57725 90.0812 101.023 6.97042 -84.9342 -81.1036 0.103456 1.85784 10.5485 3.78631 5.33141 -178.364 43.5 -4.2e-05 1e-05 -17.7875 -6.7292 -2.9253 42.3722 1.9e-05 0 77.3895 -0.382215 -1.89399 17.3 7.10543e-15 3e-06 21.4546 -1e-06 0.003093 0.103456 1.85782 -10.5485 11.6107 -4.71754 176.478 43.5 -2.7e-05 4e-06 -5.21393 11.8138 3.67687 42.3723 1.42109e-14 1e-05 82.3406 12.0974 -9.76735 17.3 -6e-06 1.7e-05 21.4546 -1.9e-05 -0.003116 6.90197 -2.60373 -3e-06 7.59338 0.85705 0.606515 12.5881 1e-05 8e-06 5.14102 1.86407 1.10948 12.3432 -1.8e-05 -5e-06 4.79166 2.00399 1.00418 25.8329 2.3e-05 7e-06 3.33908 -1.36657 -1.64429 11.7666 -8e-06 -6e-06 -31.9976 -10.022 10.1437 19.7459 -1.48035 6.0001 172.845 -10.0784 -103.886 11.2841 1.8e-05 -2e-05 -2.6022 -32.4377 32.9056 33 -1.3e-05 1.9e-05 -11.6788 10.1469 -17.6307 25.2 3.2e-05 1.1e-05 0.344456 30.1456 3.08604 19.7461 -1.48036 -6.00008 -170.665 -4.18582 78.1183 11.2841 2.84217e-14 -1e-06 28.9405 3.36441 -1.86054 33.0001 1.6e-05 -1e-06 -40.2811 8.20776 23.4937 25.1998 0.000123 0.000432 20.872 -11.2416 7.08711 
